<svg width="102" height="29" viewBox="0 0 102 29" fill="none" xmlns="http://www.w3.org/2000/svg">
<rect y="2.5" width="24" height="24" rx="12" fill="#B6E639"/>
<path d="M47.8239 9.90909V11.9545H40.6733V9.90909H47.8239ZM42.5909 6.77273H45.1392V19.1562C45.1392 19.6506 45.2131 20.0227 45.3608 20.2727C45.5085 20.517 45.6989 20.6847 45.9318 20.7756C46.1705 20.8608 46.429 20.9034 46.7074 20.9034C46.9119 20.9034 47.0909 20.8892 47.2443 20.8608C47.3977 20.8324 47.517 20.8097 47.6023 20.7926L48.0625 22.8977C47.9148 22.9545 47.7045 23.0114 47.4318 23.0682C47.1591 23.1307 46.8182 23.1648 46.4091 23.1705C45.7386 23.1818 45.1136 23.0625 44.5341 22.8125C43.9545 22.5625 43.4858 22.1761 43.1278 21.6534C42.7699 21.1307 42.5909 20.4744 42.5909 19.6847V6.77273ZM50.6428 23V9.90909H53.1058V11.9886H53.2422C53.4808 11.2841 53.9013 10.7301 54.5036 10.3267C55.1115 9.91761 55.799 9.71307 56.5661 9.71307C56.7251 9.71307 56.9126 9.71875 57.1286 9.73011C57.3501 9.74148 57.5234 9.75568 57.6484 9.77273V12.2102C57.5462 12.1818 57.3643 12.1506 57.103 12.1165C56.8416 12.0767 56.5803 12.0568 56.3189 12.0568C55.7166 12.0568 55.1797 12.1847 54.7081 12.4403C54.2422 12.6903 53.8729 13.0398 53.6001 13.4886C53.3274 13.9318 53.1911 14.4375 53.1911 15.0057V23H50.6428ZM63.5462 23.2898C62.7166 23.2898 61.9666 23.1364 61.2962 22.8295C60.6257 22.517 60.0945 22.0653 59.7024 21.4744C59.3161 20.8835 59.1229 20.1591 59.1229 19.3011C59.1229 18.5625 59.2649 17.9545 59.549 17.4773C59.8331 17 60.2166 16.6222 60.6996 16.3438C61.1825 16.0653 61.7223 15.8551 62.3189 15.7131C62.9155 15.571 63.5234 15.4631 64.1428 15.3892C64.9268 15.2983 65.5632 15.2244 66.0518 15.1676C66.5405 15.1051 66.8956 15.0057 67.1172 14.8693C67.3388 14.733 67.4496 14.5114 67.4496 14.2045V14.1449C67.4496 13.4006 67.2393 12.8239 66.8189 12.4148C66.4041 12.0057 65.7848 11.8011 64.9609 11.8011C64.103 11.8011 63.4268 11.9915 62.9325 12.3722C62.4439 12.7472 62.1058 13.1648 61.9183 13.625L59.5234 13.0795C59.8075 12.2841 60.2223 11.642 60.7678 11.1534C61.3189 10.6591 61.9524 10.3011 62.6683 10.0795C63.3842 9.85227 64.1371 9.73864 64.9268 9.73864C65.4496 9.73864 66.0036 9.80114 66.5888 9.92614C67.1797 10.0455 67.7308 10.267 68.2422 10.5909C68.7592 10.9148 69.1825 11.3778 69.5121 11.9801C69.8416 12.5767 70.0064 13.3523 70.0064 14.3068V23H67.5178V21.2102H67.4155C67.2507 21.5398 67.0036 21.8636 66.674 22.1818C66.3445 22.5 65.9212 22.7642 65.4041 22.9744C64.8871 23.1847 64.2678 23.2898 63.5462 23.2898ZM64.1001 21.2443C64.8047 21.2443 65.407 21.1051 65.907 20.8267C66.4126 20.5483 66.7962 20.1847 67.0575 19.7358C67.3246 19.2812 67.4581 18.7955 67.4581 18.2784V16.5909C67.3672 16.6818 67.1911 16.767 66.9297 16.8466C66.674 16.9205 66.3814 16.9858 66.0518 17.0426C65.7223 17.0937 65.4013 17.142 65.0888 17.1875C64.7763 17.2273 64.5149 17.2614 64.3047 17.2898C63.8104 17.3523 63.3587 17.4574 62.9496 17.6051C62.5462 17.7528 62.2223 17.9659 61.978 18.2443C61.7393 18.517 61.62 18.8807 61.62 19.3352C61.62 19.9659 61.853 20.4432 62.3189 20.767C62.7848 21.0852 63.3786 21.2443 64.1001 21.2443ZM73.4006 23V9.90909H75.9489V23H73.4006ZM74.6875 7.8892C74.2443 7.8892 73.8636 7.74148 73.5455 7.44602C73.233 7.14489 73.0767 6.78693 73.0767 6.37216C73.0767 5.9517 73.233 5.59375 73.5455 5.29829C73.8636 4.99716 74.2443 4.84659 74.6875 4.84659C75.1307 4.84659 75.5085 4.99716 75.821 5.29829C76.1392 5.59375 76.2983 5.9517 76.2983 6.37216C76.2983 6.78693 76.1392 7.14489 75.821 7.44602C75.5085 7.74148 75.1307 7.8892 74.6875 7.8892ZM81.9254 15.2273V23H79.3771V9.90909H81.8232V12.0398H81.9851C82.2862 11.3466 82.7578 10.7898 83.3999 10.3693C84.0476 9.94886 84.8629 9.73864 85.8459 9.73864C86.7379 9.73864 87.5192 9.92614 88.1896 10.3011C88.8601 10.6705 89.38 11.2216 89.7493 11.9545C90.1186 12.6875 90.3033 13.5937 90.3033 14.6733V23H87.755V14.9801C87.755 14.0312 87.5078 13.2898 87.0135 12.7557C86.5192 12.2159 85.8402 11.946 84.9766 11.946C84.3857 11.946 83.8601 12.0739 83.3999 12.3295C82.9453 12.5852 82.5845 12.9602 82.3175 13.4545C82.0561 13.9432 81.9254 14.5341 81.9254 15.2273ZM93.7209 23V9.90909H96.1839V11.9886H96.3203C96.5589 11.2841 96.9794 10.7301 97.5817 10.3267C98.1896 9.91761 98.8771 9.71307 99.6442 9.71307C99.8033 9.71307 99.9908 9.71875 100.207 9.73011C100.428 9.74148 100.602 9.75568 100.727 9.77273V12.2102C100.624 12.1818 100.442 12.1506 100.181 12.1165C99.9197 12.0767 99.6584 12.0568 99.397 12.0568C98.7947 12.0568 98.2578 12.1847 97.7862 12.4403C97.3203 12.6903 96.951 13.0398 96.6783 13.4886C96.4055 13.9318 96.2692 14.4375 96.2692 15.0057V23H93.7209Z" fill="black"/>
</svg>
